<svg width="164" height="40" viewBox="0 0 164 40" fill="none" xmlns="http://www.w3.org/2000/svg">
<path d="M56.256 30.3315L58.144 24.9235H66.88L68.768 30.3315H73.088L64.64 6.93945H60.448L52 30.3315H56.256ZM62.016 13.9155C62.24 13.2755 62.432 12.5715 62.528 12.1235C62.592 12.6035 62.816 13.3075 63.008 13.9155L65.696 21.4675H59.36L62.016 13.9155Z" fill="#0D0F20"/>
<path d="M74.1117 22.0754C74.1117 26.6514 77.0557 30.0115 81.5357 30.0115C83.8077 30.0115 85.7597 29.0835 86.7517 27.6115V30.2355C86.7517 32.8594 85.0237 34.5554 82.3357 34.5554C79.9357 34.5554 78.3677 33.3394 78.1117 31.2914H74.2077C74.6877 35.5154 77.7917 38.1075 82.3357 38.1075C87.4557 38.1075 90.6237 34.8114 90.6237 29.5315V14.5235H87.0077L86.7837 16.6995C85.8557 15.0035 83.9997 14.0115 81.6317 14.0115C77.1197 14.0115 74.1117 17.4675 74.1117 22.0754ZM78.0477 21.9795C78.0477 19.3875 79.7117 17.4355 82.3037 17.4355C85.0237 17.4355 86.6557 19.2915 86.6557 21.9795C86.6557 24.7314 84.9917 26.6194 82.3037 26.6194C79.7437 26.6194 78.0477 24.6355 78.0477 21.9795Z" fill="#0D0F20"/>
<path d="M101.736 30.7474C105.864 30.7474 108.744 28.6674 109.416 25.2115H105.8C105.352 26.7155 103.944 27.5475 101.8 27.5475C99.208 27.5475 97.736 26.1395 97.448 23.3555L109.352 23.3235V22.1395C109.352 17.2115 106.344 14.0435 101.608 14.0435C96.968 14.0435 93.736 17.4675 93.736 22.4275C93.736 27.3235 97.032 30.7474 101.736 30.7474ZM101.64 17.2435C103.976 17.2435 105.48 18.6835 105.48 20.8595H97.544C97.928 18.4915 99.336 17.2435 101.64 17.2435Z" fill="#0D0F20"/>
<path d="M116.38 30.3315V21.8195C116.38 19.2595 117.852 17.5955 120.252 17.5955C122.268 17.5955 123.58 18.8755 123.58 21.5315V30.3315H127.484V20.6034C127.484 16.5075 125.436 14.0435 121.468 14.0435C119.324 14.0435 117.404 14.9715 116.412 16.5715L116.092 14.5235H112.476V30.3315H116.38Z" fill="#0D0F20"/>
<path d="M130.392 22.3955C130.392 27.4195 133.528 30.7474 138.328 30.7474C142.456 30.7474 145.528 28.2194 146.008 24.5394H142.072C141.656 26.2675 140.28 27.2274 138.328 27.2274C135.832 27.2274 134.296 25.3715 134.296 22.3955C134.296 19.4195 135.96 17.5315 138.456 17.5315C140.312 17.5315 141.624 18.4595 142.072 20.2515H145.976C145.56 16.4435 142.616 14.0435 138.296 14.0435C133.624 14.0435 130.392 17.4995 130.392 22.3955Z" fill="#0D0F20"/>
<path d="M147.225 37.6595C148.089 37.8834 149.049 38.0114 150.137 38.0114C152.729 38.0114 154.393 36.7954 155.577 33.8514L163.321 14.5235H159.289L155.001 26.0435L150.937 14.5235H146.809L153.177 31.0035L152.729 32.1875C152.057 34.0434 151.097 34.3955 149.561 34.3955H147.225V37.6595Z" fill="#0D0F20"/>
<mask id="mask0_1674_1524" style="mask-type:alpha" maskUnits="userSpaceOnUse" x="2" y="0" width="36" height="40">
<path d="M18 1.1547C19.2376 0.440169 20.7624 0.440169 22 1.1547L35.3205 8.8453C36.5581 9.55983 37.3205 10.8803 37.3205 12.3094V27.6906C37.3205 29.1197 36.5581 30.4402 35.3205 31.1547L22 38.8453C20.7624 39.5598 19.2376 39.5598 18 38.8453L4.67949 31.1547C3.44189 30.4402 2.67949 29.1197 2.67949 27.6906V12.3094C2.67949 10.8803 3.44189 9.55983 4.67949 8.8453L18 1.1547Z" fill="#3056D3"/>
</mask>
<g mask="url(#mask0_1674_1524)">
<path d="M17.3374 1.54852C18.9876 0.595807 21.0206 0.595807 22.6708 1.54852L34.6579 8.46932C36.3081 9.42202 37.3246 11.1827 37.3246 13.0881V26.9297C37.3246 28.8351 36.3081 30.5958 34.6579 31.5485L22.6708 38.4693C21.0206 39.422 18.9876 39.422 17.3374 38.4693L5.35026 31.5485C3.70012 30.5958 2.68359 28.8351 2.68359 26.9297V13.0881C2.68359 11.1827 3.70012 9.42202 5.35026 8.46932L17.3374 1.54852Z" fill="#3056D3"/>
<path d="M37.7729 9.99972C17.3285 5.55528 6.29147 23.333 3.32851 32.7775C2.03221 44.9997 4.37943 64.2749 9.99529 39.4442C15.5505 14.8818 30.9211 9.44418 37.7729 9.99972Z" fill="white"/>
</g>
</svg>
